<?xml version="1.0" encoding="utf-8"?>
<!-- Generator: Adobe Illustrator 26.5.0, SVG Export Plug-In . SVG Version: 6.00 Build 0)  -->
<svg version="1.1" id="Layer_1" xmlns="http://www.w3.org/2000/svg" xmlns:xlink="http://www.w3.org/1999/xlink" x="0px" y="0px"
	 viewBox="0 0 123 126" style="enable-background:new 0 0 123 126;" xml:space="preserve">
<style type="text/css">
	.st0{fill:#FFFFFF;}
	.st1{fill:#00AEEF;}
</style>
<g>
	<path class="st0" d="M112,73.3c-0.1-0.3-0.3-0.7-0.4-1c-1.1-2.9-1.7-6-1.7-9.2c0-3.3,0.6-6.3,1.7-9.2c0.1-0.3,0.2-0.7,0.4-1
		c1.4-3.2,3.3-6,5.7-8.4c1.6-1.6,3.3-2.9,5.2-4c-1.8-4.7-4.2-9.1-7-13.1c-3.3,1.8-6.3,4-9,6.6c-0.8,0.8-1.6,1.7-2.4,2.5
		c-2.7,3.1-5,6.6-6.7,10.6C97.4,48,97,49,96.7,49.9H89h-1.1c-4.7-8.4-13.7-14-24-14c-15.3,0-27.6,12.4-27.6,27.6
		c0,15.3,12.4,27.6,27.6,27.6c10.3,0,19.3-5.7,24-14H89h7.9c0.3,0.8,0.6,1.6,0.9,2.3c1.7,3.9,4,7.4,6.7,10.5
		c0.8,0.9,1.5,1.7,2.4,2.5c2.7,2.6,5.7,4.8,9,6.6c2.8-4,5.2-8.4,7-13.1c-1.9-1.1-3.6-2.5-5.2-4C115.3,79.3,113.4,76.5,112,73.3z"/>
	<path class="st1" d="M97.1,98.5c-8.8,8.2-20.5,13.3-33.5,13.3h-0.1h-0.1c-27,0-48.8-21.9-48.8-48.8s21.9-48.8,48.8-48.8h0.1h0.1
		c13,0,24.8,5.1,33.5,13.3c0.6-0.7,1.3-1.3,1.9-2c2.8-2.7,5.8-5,9.1-7.1C96.7,7.1,80.9,0,63.5,0C28.4,0.1,0,28.2,0,63
		s28.4,62.9,63.5,63c17.4,0,33.2-7.1,44.7-18.4c-3.3-2-6.4-4.4-9.1-7.1C98.4,99.8,97.8,99.2,97.1,98.5z"/>
</g>
</svg>
